<?xml version="1.0" encoding="utf-8"?>
<!-- Generator: Adobe Illustrator 16.0.3, SVG Export Plug-In . SVG Version: 6.00 Build 0)  -->
<!DOCTYPE svg PUBLIC "-//W3C//DTD SVG 1.1//EN" "http://www.w3.org/Graphics/SVG/1.1/DTD/svg11.dtd">
<svg version="1.1" id="Capa_1" xmlns="http://www.w3.org/2000/svg" xmlns:xlink="http://www.w3.org/1999/xlink" x="0px" y="0px"
	 width="512px" height="512px" viewBox="0 0 512 512" enable-background="new 0 0 512 512" xml:space="preserve">
<path fill="#F5305A" stroke="#F5305A" stroke-miterlimit="10" d="M165.785,450.999c-8.427-2.495-12.173-8.11-12.486-16.543
	c-3.12-61.184-6.554-122.055-6.554-183.239c0-22.788,0.31-45.89,1.56-71.174c1.563-32.154,0.937-63.995,1.563-96.149
	c0.312-18.413,6.243-24.658,23.41-24.658l39.957,1.563c13.423,1.25,17.793,5.615,17.793,19.041v8.432
	c0,17.479,0.625,34.647,0.625,51.504c0,13.736-3.748,86.781-3.748,108.011c0,16.856,0.313,33.713,1.561,50.257
	c0.315,3.433,0.315,14.359,0.315,24.658v19.356c0,21.851,2.183,43.702,4.37,65.866c0.622,5.619,0.937,11.239,0.937,16.854
	l-0.314,9.37c-0.936,11.549-6.555,17.164-18.106,18.101c-12.485,0.938-24.971,1.252-37.459,1.252
	C174.525,453.5,170.158,452.248,165.785,450.999z"/>
<path fill="#F5305A" stroke="#F5305A" stroke-miterlimit="10" d="M291.591,450.999c-8.428-2.495-12.172-8.11-12.488-16.543
	c-3.119-61.184-6.552-122.055-6.552-183.239c0-22.788,0.313-45.89,1.558-71.174c1.562-32.154,0.937-63.995,1.562-96.149
	c0.313-18.413,6.246-24.658,23.412-24.658l39.956,1.563c13.427,1.25,17.796,5.615,17.796,19.041v8.432
	c0,17.479,0.625,34.647,0.625,51.504c0,13.736-3.748,86.781-3.748,108.011c0,16.856,0.313,33.713,1.561,50.257
	c0.313,3.433,0.313,14.359,0.313,24.658v19.356c0,21.851,2.186,43.702,4.373,65.866c0.622,5.619,0.938,11.239,0.938,16.854
	l-0.315,9.37c-0.935,11.549-6.556,17.164-18.106,18.101c-12.484,0.938-24.971,1.252-37.459,1.252
	C300.332,453.5,295.962,452.248,291.591,450.999z"/>
</svg>
